# xmcd
#
# Track frame offsets: 
#        150
#        14125
#        26680
#        39725
#        51790
#        66335
#        80260
#        90905
#        101795
#        113882
#        127130
#        140367
#        155105
#        167517
#        182030
#        195975
#
# Disc length: 2845 seconds
#
# Revision: 1
# Processed by: cddbd v1.5.2PL0 Copyright (c) Steve Scherf et al.
# Submitted via: ExactAudioCopy v0.95b4
#
DISCID=db0b1b10
DTITLE=Dolly Parton - Legends [CD1]
DYEAR=2005
DGENRE=Country
TTITLE0=Coat Of Many Colors
TTITLE1=In The Good Old Days (When Times Were Bad)
TTITLE2=Higher And Higher
TTITLE3=Touch Your Woman
TTITLE4=We Used To
TTITLE5=My Tennessee Mountain Home
TTITLE6=Love Is Like A Butterfly
TTITLE7=All I Can Do
TTITLE8=Jolene
TTITLE9=I Will Always Love You
TTITLE10=Here You Come Again
TTITLE11=It's All Wrong But It's All Right
TTITLE12=Elusive Butterfly
TTITLE13=But You Know I Love You
TTITLE14=Just Because I'm A Woman
TTITLE15=One Of Those Days
EXTD=
EXTT0=
EXTT1=
EXTT2=
EXTT3=
EXTT4=
EXTT5=
EXTT6=
EXTT7=
EXTT8=
EXTT9=
EXTT10=
EXTT11=
EXTT12=
EXTT13=
EXTT14=
EXTT15=
PLAYORDER=
